HIERARCHY
ROOT Hips
{
 OFFSET 0.000000 0.000000 0.000000
 CHANNELS 6 Xposition Yposition Zposition Yrotation Xrotation Zrotation
 JOINT Chest
 {
  OFFSET 0.000000 9.585900 0.002600
  CHANNELS 3 Yrotation Xrotation Zrotation
  JOINT Chest2
  {
   OFFSET 0.000000 9.601200 -0.005300
   CHANNELS 3 Yrotation Xrotation Zrotation
   JOINT Chest3
   {
    OFFSET 0.000000 9.561800 0.000000
    CHANNELS 3 Yrotation Xrotation Zrotation
    JOINT Chest4
    {
     OFFSET 0.000000 9.552100 0.000000
     CHANNELS 3 Yrotation Xrotation Zrotation
     JOINT Neck
     {
      OFFSET 0.000000 14.453000 0.000000
      CHANNELS 3 Yrotation Xrotation Zrotation
      JOINT Head
      {
       OFFSET 0.000000 8.936500 -0.011300
       CHANNELS 3 Yrotation Xrotation Zrotation
       End Site
       {
        OFFSET 0.000000 17.073600 -0.006000
       }
      }
     }
     JOINT RightCollar
     {
      OFFSET -2.921100 9.558500 0.000000
      CHANNELS 3 Yrotation Xrotation Zrotation
      JOINT RightShoulder
      {
       OFFSET -13.519700 0.000000 0.000000
       CHANNELS 3 Yrotation Xrotation Zrotation
       JOINT RightElbow
       {
        OFFSET 0.000000 -29.696600 0.000000
        CHANNELS 3 Yrotation Xrotation Zrotation
        JOINT RightWrist
        {
         OFFSET 0.000000 -24.004700 0.000000
         CHANNELS 3 Yrotation Xrotation Zrotation
         End Site
         {
          OFFSET 0.000000 -17.728500 0.000000
         }
        }
       }
      }
     }
     JOINT LeftCollar
     {
      OFFSET 2.921100 9.558500 0.000000
      CHANNELS 3 Yrotation Xrotation Zrotation
      JOINT LeftShoulder
      {
       OFFSET 13.519700 0.000000 0.000000
       CHANNELS 3 Yrotation Xrotation Zrotation
       JOINT LeftElbow
       {
        OFFSET 0.000000 -29.696600 0.000000
        CHANNELS 3 Yrotation Xrotation Zrotation
        JOINT LeftWrist
        {
         OFFSET 0.000000 -24.004700 0.000000
         CHANNELS 3 Yrotation Xrotation Zrotation
         End Site
         {
          OFFSET 0.000000 -17.728500 0.000000
         }
        }
       }
      }
     }
    }
   }
  }
 }
 JOINT RightHip
 {
  OFFSET -7.771700 -0.012900 -0.001300
  CHANNELS 3 Yrotation Xrotation Zrotation
  JOINT RightKnee
  {
   OFFSET 0.000000 -40.869800 0.001200
   CHANNELS 3 Yrotation Xrotation Zrotation
   JOINT RightAnkle
   {
    OFFSET 0.000000 -39.717900 0.002100
    CHANNELS 3 Yrotation Xrotation Zrotation
    JOINT RightToe
    {
     OFFSET 0.000000 -4.965400 11.033500
     CHANNELS 3 Yrotation Xrotation Zrotation
     End Site
     {
      OFFSET 0.000000 -1.423100 5.872300
     }
    }
   }
  }
 }
 JOINT LeftHip
 {
  OFFSET 7.771700 -0.012900 -0.001300
  CHANNELS 3 Yrotation Xrotation Zrotation
  JOINT LeftKnee
  {
   OFFSET 0.000000 -40.869800 0.001200
   CHANNELS 3 Yrotation Xrotation Zrotation
   JOINT LeftAnkle
   {
    OFFSET 0.000000 -39.717900 0.002100
    CHANNELS 3 Yrotation Xrotation Zrotation
    JOINT LeftToe
    {
     OFFSET 0.000000 -4.965400 11.033500
     CHANNELS 3 Yrotation Xrotation Zrotation
     End Site
     {
      OFFSET 0.000000 -1.423100 5.872300
     }
    }
   }
  }
 }
}
MOTION
Frames: 8
Frame Time: 0.008333
-132.749146 51.726622 -55.480695 176.008485 -18.992459 0.663823 -1.692140 11.999097 0.595157 -0.134735 0.884865 0.097012 -0.227194 1.508288 0.164800 -1.571697 10.961956 1.069021 -2.262286 18.531355 -1.497012 -2.062472 -6.173598 -1.059739 4.392528 16.725804 10.700411 31.948897 -1.606873 -32.403366 117.557627 -56.753319 -148.926784 4.361282 1.157377 -8.063362 -1.648818 16.348532 -13.868782 -31.750845 2.361607 29.024229 -95.331160 -61.032804 139.293340 11.604448 3.512905 1.122143 -12.881693 -63.482179 6.907064 -81.528042 81.523616 -89.541955 -3.888964 -6.631298 6.131858 0.247649 -0.786829 0.127420 12.176508 -61.397180 -9.776407 32.913608 85.386732 38.628198 -2.071162 -12.874035 0.527933 0.131872 0.422616 0.057887
-132.750609 51.726435 -55.480591 176.014584 -18.999473 0.663396 -1.699522 12.007831 0.592839 -0.133869 0.883562 0.097244 -0.226372 1.511693 0.166750 -1.572325 10.961855 1.070216 -2.258948 18.530249 -1.503842 -2.050714 -6.169573 -1.078704 4.396986 16.722903 10.700490 31.946184 -1.608766 -32.409576 117.593985 -56.725539 -148.967411 4.350868 1.183539 -8.037309 -1.646187 16.343765 -13.874037 -31.760073 2.361976 29.026906 -95.408169 -61.018572 139.393731 11.583681 3.545059 1.105828 -12.884235 -63.476388 6.901330 -81.538072 81.525627 -89.551027 -3.888636 -6.630205 6.125207 0.250590 -0.780000 0.125334 12.179853 -61.389483 -9.784667 32.924733 85.384491 38.642132 -2.073262 -12.872810 0.531539 0.131745 0.422666 0.056442
-132.754224 51.727042 -55.482436 176.038541 -19.017107 0.670514 -1.723909 12.025888 0.577475 -0.133755 0.883574 0.097379 -0.227288 1.512468 0.170553 -1.570712 10.964447 1.071001 -2.261112 18.526525 -1.510002 -2.046336 -6.169939 -1.085794 4.396194 16.718359 10.698067 31.945731 -1.610092 -32.414226 117.628261 -56.713409 -149.007076 4.339909 1.160893 -8.052521 -1.647615 16.341234 -13.879603 -31.763013 2.354931 29.029360 -95.428014 -61.014035 139.412637 11.608850 3.491567 1.121646 -12.871179 -63.464057 6.860932 -81.540787 81.525880 -89.553487 -3.912345 -6.583857 6.111237 0.279472 -0.820812 0.139340 12.179032 -61.369100 -9.809700 32.950660 85.380922 38.669096 -2.097140 -12.883947 0.526078 0.151048 0.435390 0.066660
-132.756921 51.726999 -55.481846 176.040339 -19.018350 0.678166 -1.724864 12.030097 0.578823 -0.136075 0.881832 0.093682 -0.225828 1.512904 0.168831 -1.573318 10.963426 1.067958 -2.259188 18.526628 -1.512694 -2.042625 -6.171292 -1.094729 4.400746 16.717079 10.700031 31.943704 -1.612287 -32.416334 117.664282 -56.695485 -149.051007 4.345028 1.172299 -8.046233 -1.646603 16.341313 -13.880790 -31.763345 2.333820 29.027995 -95.438092 -61.006144 139.410862 11.619937 3.470364 1.128240 -12.862665 -63.466025 6.848689 -81.537069 81.524850 -89.553960 -3.911257 -6.578893 6.106192 0.277680 -0.822057 0.143696 12.191674 -61.364677 -9.828320 32.952957 85.377947 38.671619 -2.098993 -12.882606 0.528239 0.154558 0.435457 0.066015
-132.758216 51.727254 -55.481634 176.046661 -19.021462 0.675905 -1.729347 12.033923 0.580479 -0.131586 0.883997 0.097722 -0.228076 1.510955 0.165305 -1.575948 10.964360 1.071215 -2.259180 18.524965 -1.520730 -2.040652 -6.172028 -1.102095 4.407440 16.713289 10.702057 31.949730 -1.604116 -32.434534 117.695787 -56.685742 -149.106745 4.348541 1.184023 -8.041708 -1.642425 16.338299 -13.886977 -31.768468 2.324479 29.029125 -95.552929 -60.987874 139.538472 11.601447 3.488810 1.108902 -12.870305 -63.457696 6.848722 -81.496218 81.524219 -89.515135 -3.904912 -6.586800 6.102314 0.275848 -0.810819 0.143407 12.177852 -61.360323 -9.821688 32.932659 85.375841 38.648146 -2.098129 -12.887323 0.531208 0.154579 0.440439 0.064704
-132.759575 51.727688 -55.481544 176.054042 -19.024364 0.673375 -1.733997 12.037051 0.581021 -0.131515 0.883721 0.098046 -0.226879 1.510918 0.165534 -1.574750 10.966549 1.073137 -2.260251 18.524666 -1.524574 -2.041993 -6.175700 -1.105133 4.405164 16.713065 10.704758 31.959335 -1.600177 -32.442782 117.703158 -56.677138 -149.129081 4.349295 1.171954 -8.065237 -1.641018 16.328541 -13.892232 -31.772299 2.320432 29.028840 -95.557649 -60.985073 139.534971 11.608588 3.465100 1.111657 -12.870573 -63.451275 6.843776 -81.470771 81.522774 -89.488663 -3.906052 -6.590957 6.102296 0.276329 -0.803045 0.140556 12.167003 -61.356603 -9.818471 32.924463 85.373884 38.637946 -2.097656 -12.889218 0.534449 0.153783 0.442641 0.063628
-132.759072 51.727281 -55.478658 176.033933 -19.009356 0.666980 -1.706696 12.023482 0.597976 -0.134237 0.882430 0.096408 -0.228142 1.511169 0.165239 -1.565880 10.970858 1.072925 -2.266301 18.519404 -1.525445 -2.043994 -6.176202 -1.104436 4.421532 16.708307 10.707387 31.941856 -1.605002 -32.440949 117.716051 -56.665103 -149.151660 4.353221 1.145914 -8.090239 -1.646316 16.319578 -13.894700 -31.775087 2.321091 29.030550 -95.621769 -60.970296 139.604570 11.607670 3.451108 1.098840 -12.880803 -63.461103 6.878688 -81.442897 81.523154 -89.461308 -3.882403 -6.629725 6.107162 0.249020 -0.761401 0.129506 12.168381 -61.372977 -9.799029 32.927999 85.371637 38.641043 -2.079844 -12.876526 0.540120 0.136019 0.429969 0.055645
-132.761667 51.727831 -55.478494 176.031229 -19.009905 0.673732 -1.704334 12.025339 0.592461 -0.133088 0.884983 0.097381 -0.229057 1.510098 0.165353 -1.564973 10.969784 1.071336 -2.264526 18.518048 -1.528123 -2.046770 -6.178750 -1.103154 4.429375 16.705895 10.707325 31.939739 -1.606332 -32.439601 117.737490 -56.630003 -149.181670 4.350573 1.171946 -8.089496 -1.643834 16.313331 -13.899791 -31.779074 2.323799 29.032804 -95.694407 -60.954185 139.675535 11.609294 3.426443 1.095017 -12.865472 -63.460312 6.868130 -81.416517 81.524838 -89.439179 -3.889248 -6.628169 6.108003 0.251020 -0.755074 0.124874 12.177227 -61.368058 -9.810607 32.964383 85.364576 38.676192 -2.079496 -12.877991 0.541405 0.133039 0.431706 0.054787
